<svg width="41" height="38" viewBox="0 0 41 38" fill="none" xmlns="http://www.w3.org/2000/svg">
<path d="M41 0.386965L40.0699 7.67449C37.7965 7.51777 36.0397 7.93569 34.7996 8.92826C33.5595 9.92082 32.7328 11.3052 32.3195 13.0814C31.9061 14.8575 31.8286 16.8688 32.087 19.1151H41V38H23.8715V17.5479C23.8715 11.3836 25.3182 6.73416 28.2117 3.59975C31.1569 0.413086 35.4197 -0.657841 41 0.386965ZM17.1285 0.386965L16.1985 7.67449C13.925 7.51777 12.1682 7.93569 10.9282 8.92826C9.68809 9.92082 8.86137 11.3052 8.44802 13.0814C8.03466 14.8575 7.95715 16.8688 8.2155 19.1151H17.1285V38H0V17.5479C0 11.3836 1.44675 6.73416 4.34026 3.59975C7.28544 0.413086 11.5482 -0.657841 17.1285 0.386965Z" fill="white"/>
</svg>
