<svg width="82" height="96" viewBox="0 0 82 96" fill="none" xmlns="http://www.w3.org/2000/svg">
<path d="M36.2547 0.00991569C36.1572 -0.00956381 36.0729 -0.000106724 36.0204 0.0362068C35.9678 0.0725203 35.9513 0.132716 35.9744 0.20355C35.9976 0.274385 36.0585 0.350056 36.1437 0.413918C36.229 0.477779 36.3317 0.5246 36.4292 0.54408C49.2373 3.28835 61.1433 12.8899 68.6487 21.7704C76.7116 31.3186 81.7744 41.8683 79.7665 49.6938C79.2723 51.4891 78.3216 53.0646 76.9462 54.3678C75.3833 51.5312 72.9641 48.6774 69.905 46.0615C64.8328 41.7214 57.964 38.2093 51.8951 37.7686C46.7038 37.388 42.4399 39.1775 42.522 42.9567C42.604 46.7359 46.8853 51.3431 52.0628 54.6015C58.3589 58.5676 65.2198 60.1434 70.5546 59.3422C72.9803 58.9788 75.0651 58.2381 76.7194 57.1521C78.6899 62.6674 77.7178 67.8955 75.1131 71.461C71.7874 76.0825 65.5312 78.7844 57.3487 79.133C58.069 75.4934 57.2954 71.2729 55.0954 66.8405C50.062 57.0787 31.5515 48.4118 23.9619 53.4463C16.5677 58.3406 24.4634 70.2525 37.5305 76.0348C43.5921 78.6776 49.7502 80.1711 55.2057 80.3215C53.7079 85.681 49.6986 89.7723 43.624 92.1398C34.0645 95.8256 19.6014 94.3566 5.21107 88.9549C8.10328 88.5149 11.2438 88.3782 14.5723 88.5476C15.521 88.5943 14.742 87.4058 13.7933 87.3591C9.84084 87.1592 6.15177 87.3837 2.82237 88.0268C2.35216 87.8331 1.87473 87.6529 1.40812 87.4525C0.499629 87.0653 0.247808 87.96 1.15861 88.3873L1.56496 88.581C1.57428 88.6913 1.63647 88.8155 1.74247 88.9356C1.84847 89.0557 1.99274 89.1654 2.15431 89.2487C6.39141 91.3675 10.7063 93.2713 15.0483 94.9375C15.9545 95.2847 16.221 94.4368 15.2978 94.0027L11.0948 91.9996C17.8683 94.0693 24.4704 95.1958 30.4994 95.3106C36.5285 95.4254 41.8585 94.5261 46.1653 92.6673C51.9278 90.0145 55.6975 85.7762 57.1045 80.3682C64.5113 80.2381 70.5303 78.3022 74.4389 74.7929C79.0123 70.6865 81.1517 63.7557 77.9076 56.2974C84.2707 50.8289 81.8875 39.6048 75.8273 29.8964C68.5187 18.1982 53.5213 3.64891 36.2547 0.00991569ZM47.767 78.2783C41.0796 76.9429 33.0666 73.7312 27.7659 68.7501C23.0686 64.3366 21.7288 59.2353 23.705 56.1238C25.8936 52.6785 32.1206 52.3981 38.9194 54.9754C47.3293 58.147 52.9562 63.8692 54.7752 69.6649C55.817 73.0741 56.0482 76.2891 55.4589 79.173C53.0187 79.1164 50.4359 78.816 47.767 78.2783ZM50.1545 52.1043C43.9843 47.3435 42.2225 41.7081 47.1127 39.705C51.8034 37.7019 59.54 39.8585 65.9246 44.252C70.6255 47.4986 74.2116 51.4415 75.957 55.2825C70.5728 59.3822 60.724 60.2636 50.1545 52.1043Z" fill="black"/>
</svg>
