<svg width="115" height="133" viewBox="0 0 115 133" fill="none" xmlns="http://www.w3.org/2000/svg">
<path d="M114.444 124.499C108.891 121.159 103.101 118.229 97.121 115.734L96.8279 115.6C95.4953 115.053 94.8824 117.068 95.9084 117.788L107.049 125.593C87.2336 124.259 66.286 122.284 49.7492 110.477C33.2123 98.6699 25.4836 79.4849 32.2929 60.7669C49.1229 61.8876 66.7924 54.2963 78.0524 42.1956C82.623 37.2726 89.4056 26.3859 79.6248 22.7304C70.4036 19.275 57.1714 28.067 50.3088 33.3235C41.7313 39.8074 34.993 48.4209 30.7605 58.3121C29.4279 58.2053 28.2553 58.0452 27.056 57.8317C16.2358 55.9239 5.10903 49.5734 2.40397 38.1798C-1.02067 23.731 9.91949 10.8565 18.8342 0.970488C19.3139 0.43683 18.5544 -0.363652 18.048 0.183347C9.38647 9.25553 0.271875 19.5418 0.00536669 32.8299C-0.221165 43.7699 6.74803 52.2817 16.329 56.7644C20.6202 58.7432 25.1998 60.0224 29.8943 60.5534C25.8967 71.5601 25.8967 83.6208 32.1596 94.8276C46.8176 121.15 78.1457 125.886 105.623 127.888L99.0266 130.823C97.6274 131.45 98.84 133.491 100.226 132.891L110.7 128.235H111.179C111.414 128.262 111.65 128.205 111.846 128.072C112.041 127.94 112.183 127.742 112.245 127.514L114.444 126.54C114.615 126.43 114.755 126.279 114.852 126.101C114.949 125.923 115 125.723 115 125.52C115 125.317 114.949 125.117 114.852 124.938C114.755 124.76 114.615 124.609 114.444 124.499ZM35.0912 54.4163C40.072 45.4509 47.2077 37.871 55.8522 32.3629C60.1927 29.4881 64.8985 27.2086 69.8439 25.5855C71.8241 24.8607 73.9186 24.4992 76.0269 24.5181C82.2366 24.9184 83.0228 30.6819 80.4243 35.3514C71.8694 50.6807 50.6953 59.1526 33.1457 58.4721C33.7187 57.0846 34.3717 55.7505 35.0912 54.4163Z" fill="black"/>
</svg>
