<svg width="88" height="89" viewBox="0 0 88 89" fill="none" xmlns="http://www.w3.org/2000/svg">
<rect y="0.369141" width="88" height="88" rx="44" fill="#C3566B"/>
<path d="M75.4459 27.7963C76.4182 26.6296 76.2605 24.8955 75.0938 23.9232C73.927 22.9509 72.1929 23.1086 71.2206 24.2753L51.4548 47.9943C47.4844 52.7588 44.6914 56.1001 42.2688 58.2877C39.9028 60.4242 38.2699 61.1033 36.6666 61.1033C35.0633 61.1033 33.4304 60.4242 31.0643 58.2877C28.6418 56.1001 25.8487 52.7588 21.8783 47.9943L16.7792 41.8753C15.8069 40.7086 14.0728 40.5509 12.9061 41.5232C11.7393 42.4955 11.5817 44.2296 12.554 45.3963L17.7946 51.6851C21.5906 56.2404 24.6306 59.8885 27.3782 62.3697C30.2164 64.9326 33.1177 66.6033 36.6666 66.6033C40.2154 66.6033 43.1167 64.9326 45.9549 62.3697C48.7025 59.8886 51.7425 56.2405 55.5384 51.6853L75.4459 27.7963Z" fill="white"/>
</svg>
